%TF.GenerationSoftware,KiCad,Pcbnew,8.0.0*%
%TF.CreationDate,2024-02-24T23:10:17-05:00*%
%TF.ProjectId,Guitar_Amplifier,47756974-6172-45f4-916d-706c69666965,rev?*%
%TF.SameCoordinates,Original*%
%TF.FileFunction,Copper,L2,Bot*%
%TF.FilePolarity,Positive*%
%FSLAX46Y46*%
G04 Gerber Fmt 4.6, Leading zero omitted, Abs format (unit mm)*
G04 Created by KiCad (PCBNEW 8.0.0) date 2024-02-24 23:10:17*
%MOMM*%
%LPD*%
G01*
G04 APERTURE LIST*
%TA.AperFunction,ComponentPad*%
%ADD10R,0.850000X0.850000*%
%TD*%
%TA.AperFunction,ComponentPad*%
%ADD11O,0.850000X0.850000*%
%TD*%
%TA.AperFunction,ViaPad*%
%ADD12C,0.600000*%
%TD*%
%TA.AperFunction,Conductor*%
%ADD13C,0.200000*%
%TD*%
G04 APERTURE END LIST*
D10*
%TO.P,J2,1,Pin_1*%
%TO.N,Net-(J2-Pin_1)*%
X144500000Y-84500000D03*
D11*
%TO.P,J2,2,Pin_2*%
%TO.N,GND*%
X144500000Y-85500000D03*
%TD*%
D10*
%TO.P,J1,1,Pin_1*%
%TO.N,+9V*%
X110000000Y-83500000D03*
D11*
%TO.P,J1,2,Pin_2*%
%TO.N,Net-(J1-Pin_2)*%
X110000000Y-84500000D03*
%TO.P,J1,3,Pin_3*%
%TO.N,GND*%
X110000000Y-85500000D03*
%TO.P,J1,4,Pin_4*%
X110000000Y-86500000D03*
%TD*%
D12*
%TO.N,GND*%
X113500000Y-88500000D03*
X121500000Y-86500000D03*
X131000000Y-88000000D03*
X143500000Y-85500000D03*
%TD*%
D13*
%TO.N,GND*%
X131000000Y-90500000D02*
X131000000Y-88000000D01*
X120500000Y-90500000D02*
X131000000Y-90500000D01*
X119500000Y-89500000D02*
X120500000Y-90500000D01*
X113500000Y-88500000D02*
X113500000Y-89000000D01*
X113500000Y-89000000D02*
X114000000Y-89500000D01*
X119500000Y-89500000D02*
X114000000Y-89500000D01*
X121500000Y-87500000D02*
X119500000Y-89500000D01*
X121500000Y-86500000D02*
X121500000Y-87500000D01*
X143500000Y-87500000D02*
X143500000Y-85500000D01*
X143000000Y-88000000D02*
X143500000Y-87500000D01*
X131000000Y-88000000D02*
X143000000Y-88000000D01*
%TD*%
%TA.AperFunction,Conductor*%
%TO.N,GND*%
G36*
X146442539Y-76520185D02*
G01*
X146488294Y-76572989D01*
X146499500Y-76624500D01*
X146499500Y-91375500D01*
X146479815Y-91442539D01*
X146427011Y-91488294D01*
X146375500Y-91499500D01*
X108624500Y-91499500D01*
X108557461Y-91479815D01*
X108511706Y-91427011D01*
X108500500Y-91375500D01*
X108500500Y-86750000D01*
X109108628Y-86750000D01*
X109150316Y-86878306D01*
X109150317Y-86878307D01*
X109247536Y-87046694D01*
X109247535Y-87046694D01*
X109377639Y-87191190D01*
X109377642Y-87191192D01*
X109534950Y-87305484D01*
X109712587Y-87384573D01*
X109749999Y-87392524D01*
X109750000Y-87392524D01*
X109750000Y-86750000D01*
X109108628Y-86750000D01*
X108500500Y-86750000D01*
X108500500Y-86549728D01*
X109750000Y-86549728D01*
X109788060Y-86641614D01*
X109858386Y-86711940D01*
X109950272Y-86750000D01*
X110049728Y-86750000D01*
X110250000Y-86750000D01*
X110250000Y-87392524D01*
X110287412Y-87384573D01*
X110465049Y-87305484D01*
X110622357Y-87191192D01*
X110622360Y-87191190D01*
X110752463Y-87046694D01*
X110849682Y-86878307D01*
X110849683Y-86878306D01*
X110891372Y-86750000D01*
X110250000Y-86750000D01*
X110049728Y-86750000D01*
X110141614Y-86711940D01*
X110211940Y-86641614D01*
X110250000Y-86549728D01*
X110250000Y-86450272D01*
X110211940Y-86358386D01*
X110141614Y-86288060D01*
X110049728Y-86250000D01*
X109950272Y-86250000D01*
X109858386Y-86288060D01*
X109788060Y-86358386D01*
X109750000Y-86450272D01*
X109750000Y-86549728D01*
X108500500Y-86549728D01*
X108500500Y-85750000D01*
X109108628Y-85750000D01*
X109150316Y-85878306D01*
X109150317Y-85878307D01*
X109184781Y-85938000D01*
X109201254Y-86005900D01*
X109184781Y-86062000D01*
X109150317Y-86121692D01*
X109150316Y-86121693D01*
X109108628Y-86249999D01*
X109108628Y-86250000D01*
X109750000Y-86250000D01*
X109750000Y-85750000D01*
X109108628Y-85750000D01*
X108500500Y-85750000D01*
X108500500Y-84500000D01*
X109069402Y-84500000D01*
X109089738Y-84693483D01*
X109149856Y-84878510D01*
X109149857Y-84878511D01*
X109184492Y-84938500D01*
X109200965Y-85006400D01*
X109184492Y-85062500D01*
X109150317Y-85121692D01*
X109150316Y-85121693D01*
X109108628Y-85249999D01*
X109108628Y-85250000D01*
X109417441Y-85250000D01*
X109484480Y-85269685D01*
X109490319Y-85273676D01*
X109502527Y-85282546D01*
X109534702Y-85305923D01*
X109602926Y-85336297D01*
X109712429Y-85385051D01*
X109771788Y-85397668D01*
X109750000Y-85450272D01*
X109750000Y-85549728D01*
X109788060Y-85641614D01*
X109858386Y-85711940D01*
X109950272Y-85750000D01*
X110049728Y-85750000D01*
X110250000Y-85750000D01*
X110250000Y-86250000D01*
X110891372Y-86250000D01*
X110891371Y-86249999D01*
X110849684Y-86121697D01*
X110815218Y-86062000D01*
X110798745Y-85994100D01*
X110815218Y-85938000D01*
X110849684Y-85878302D01*
X110891372Y-85750000D01*
X143608628Y-85750000D01*
X143650316Y-85878306D01*
X143650317Y-85878307D01*
X143747536Y-86046694D01*
X143747535Y-86046694D01*
X143877639Y-86191190D01*
X143877642Y-86191192D01*
X144034950Y-86305484D01*
X144212587Y-86384573D01*
X144249999Y-86392524D01*
X144250000Y-86392524D01*
X144250000Y-85750000D01*
X143608628Y-85750000D01*
X110891372Y-85750000D01*
X110250000Y-85750000D01*
X110049728Y-85750000D01*
X110141614Y-85711940D01*
X110211940Y-85641614D01*
X110250000Y-85549728D01*
X110250000Y-85450272D01*
X110228211Y-85397668D01*
X110287571Y-85385051D01*
X110465299Y-85305922D01*
X110509673Y-85273681D01*
X110575480Y-85250202D01*
X110582559Y-85250000D01*
X110891372Y-85250000D01*
X110891371Y-85249999D01*
X110849684Y-85121697D01*
X110815507Y-85062500D01*
X110799034Y-84994600D01*
X110805415Y-84972870D01*
X143574500Y-84972870D01*
X143574501Y-84972876D01*
X143580908Y-85032483D01*
X143618380Y-85132948D01*
X143623364Y-85202639D01*
X143620130Y-85214597D01*
X143608627Y-85249999D01*
X143608628Y-85250000D01*
X143633546Y-85250000D01*
X143700585Y-85269685D01*
X143710202Y-85277435D01*
X143710355Y-85277232D01*
X143832664Y-85368793D01*
X143832671Y-85368797D01*
X143967517Y-85419091D01*
X143967516Y-85419091D01*
X143974444Y-85419835D01*
X144027127Y-85425500D01*
X144260260Y-85425499D01*
X144250000Y-85450272D01*
X144250000Y-85549728D01*
X144288060Y-85641614D01*
X144358386Y-85711940D01*
X144450272Y-85750000D01*
X144549728Y-85750000D01*
X144750000Y-85750000D01*
X144750000Y-86392524D01*
X144787412Y-86384573D01*
X144965049Y-86305484D01*
X145122357Y-86191192D01*
X145122360Y-86191190D01*
X145252463Y-86046694D01*
X145349682Y-85878307D01*
X145349683Y-85878306D01*
X145391372Y-85750000D01*
X144750000Y-85750000D01*
X144549728Y-85750000D01*
X144641614Y-85711940D01*
X144711940Y-85641614D01*
X144750000Y-85549728D01*
X144750000Y-85450272D01*
X144739738Y-85425499D01*
X144972872Y-85425499D01*
X145032483Y-85419091D01*
X145167331Y-85368796D01*
X145181237Y-85358386D01*
X145289645Y-85277232D01*
X145291319Y-85279468D01*
X145340096Y-85252834D01*
X145366454Y-85250000D01*
X145391372Y-85250000D01*
X145391371Y-85249999D01*
X145379870Y-85214601D01*
X145377875Y-85144760D01*
X145381619Y-85132950D01*
X145419091Y-85032482D01*
X145421895Y-85006400D01*
X145425500Y-84972873D01*
X145425499Y-84027128D01*
X145419091Y-83967517D01*
X145368796Y-83832669D01*
X145368795Y-83832668D01*
X145368793Y-83832664D01*
X145282547Y-83717455D01*
X145282544Y-83717452D01*
X145167335Y-83631206D01*
X145167328Y-83631202D01*
X145032482Y-83580908D01*
X145032483Y-83580908D01*
X144972883Y-83574501D01*
X144972881Y-83574500D01*
X144972873Y-83574500D01*
X144972864Y-83574500D01*
X144027129Y-83574500D01*
X144027123Y-83574501D01*
X143967516Y-83580908D01*
X143832671Y-83631202D01*
X143832664Y-83631206D01*
X143717455Y-83717452D01*
X143717452Y-83717455D01*
X143631206Y-83832664D01*
X143631202Y-83832671D01*
X143580908Y-83967517D01*
X143574501Y-84027116D01*
X143574501Y-84027123D01*
X143574500Y-84027135D01*
X143574500Y-84972870D01*
X110805415Y-84972870D01*
X110815506Y-84938502D01*
X110850144Y-84878508D01*
X110910262Y-84693482D01*
X110930598Y-84500000D01*
X110910262Y-84306518D01*
X110880150Y-84213844D01*
X110878156Y-84144006D01*
X110881895Y-84132210D01*
X110919091Y-84032483D01*
X110925500Y-83972873D01*
X110925499Y-83027128D01*
X110919091Y-82967517D01*
X110868796Y-82832669D01*
X110868795Y-82832668D01*
X110868793Y-82832664D01*
X110782547Y-82717455D01*
X110782544Y-82717452D01*
X110667335Y-82631206D01*
X110667328Y-82631202D01*
X110532482Y-82580908D01*
X110532483Y-82580908D01*
X110472883Y-82574501D01*
X110472881Y-82574500D01*
X110472873Y-82574500D01*
X110472864Y-82574500D01*
X109527129Y-82574500D01*
X109527123Y-82574501D01*
X109467516Y-82580908D01*
X109332671Y-82631202D01*
X109332664Y-82631206D01*
X109217455Y-82717452D01*
X109217452Y-82717455D01*
X109131206Y-82832664D01*
X109131202Y-82832671D01*
X109080908Y-82967517D01*
X109074501Y-83027116D01*
X109074501Y-83027123D01*
X109074500Y-83027135D01*
X109074500Y-83972870D01*
X109074501Y-83972876D01*
X109080908Y-84032483D01*
X109118099Y-84132195D01*
X109123083Y-84201887D01*
X109119848Y-84213845D01*
X109089740Y-84306511D01*
X109089738Y-84306516D01*
X109069402Y-84500000D01*
X108500500Y-84500000D01*
X108500500Y-76624500D01*
X108520185Y-76557461D01*
X108572989Y-76511706D01*
X108624500Y-76500500D01*
X146375500Y-76500500D01*
X146442539Y-76520185D01*
G37*
%TD.AperFunction*%
%TD*%
M02*
