%TF.GenerationSoftware,KiCad,Pcbnew,8.0.0*%
%TF.CreationDate,2024-02-24T23:10:17-05:00*%
%TF.ProjectId,Guitar_Amplifier,47756974-6172-45f4-916d-706c69666965,rev?*%
%TF.SameCoordinates,Original*%
%TF.FileFunction,Copper,L1,Top*%
%TF.FilePolarity,Positive*%
%FSLAX46Y46*%
G04 Gerber Fmt 4.6, Leading zero omitted, Abs format (unit mm)*
G04 Created by KiCad (PCBNEW 8.0.0) date 2024-02-24 23:10:17*
%MOMM*%
%LPD*%
G01*
G04 APERTURE LIST*
G04 Aperture macros list*
%AMRoundRect*
0 Rectangle with rounded corners*
0 $1 Rounding radius*
0 $2 $3 $4 $5 $6 $7 $8 $9 X,Y pos of 4 corners*
0 Add a 4 corners polygon primitive as box body*
4,1,4,$2,$3,$4,$5,$6,$7,$8,$9,$2,$3,0*
0 Add four circle primitives for the rounded corners*
1,1,$1+$1,$2,$3*
1,1,$1+$1,$4,$5*
1,1,$1+$1,$6,$7*
1,1,$1+$1,$8,$9*
0 Add four rect primitives between the rounded corners*
20,1,$1+$1,$2,$3,$4,$5,0*
20,1,$1+$1,$4,$5,$6,$7,0*
20,1,$1+$1,$6,$7,$8,$9,0*
20,1,$1+$1,$8,$9,$2,$3,0*%
G04 Aperture macros list end*
%TA.AperFunction,SMDPad,CuDef*%
%ADD10RoundRect,0.150000X-0.825000X-0.150000X0.825000X-0.150000X0.825000X0.150000X-0.825000X0.150000X0*%
%TD*%
%TA.AperFunction,SMDPad,CuDef*%
%ADD11R,1.200000X1.200000*%
%TD*%
%TA.AperFunction,SMDPad,CuDef*%
%ADD12R,1.500000X1.600000*%
%TD*%
%TA.AperFunction,SMDPad,CuDef*%
%ADD13RoundRect,0.200000X0.275000X-0.200000X0.275000X0.200000X-0.275000X0.200000X-0.275000X-0.200000X0*%
%TD*%
%TA.AperFunction,SMDPad,CuDef*%
%ADD14RoundRect,0.200000X-0.200000X-0.275000X0.200000X-0.275000X0.200000X0.275000X-0.200000X0.275000X0*%
%TD*%
%TA.AperFunction,ComponentPad*%
%ADD15R,0.850000X0.850000*%
%TD*%
%TA.AperFunction,ComponentPad*%
%ADD16O,0.850000X0.850000*%
%TD*%
%TA.AperFunction,SMDPad,CuDef*%
%ADD17RoundRect,0.243750X0.243750X0.456250X-0.243750X0.456250X-0.243750X-0.456250X0.243750X-0.456250X0*%
%TD*%
%TA.AperFunction,SMDPad,CuDef*%
%ADD18RoundRect,0.225000X0.250000X-0.225000X0.250000X0.225000X-0.250000X0.225000X-0.250000X-0.225000X0*%
%TD*%
%TA.AperFunction,SMDPad,CuDef*%
%ADD19RoundRect,0.250000X-1.750000X-1.000000X1.750000X-1.000000X1.750000X1.000000X-1.750000X1.000000X0*%
%TD*%
%TA.AperFunction,SMDPad,CuDef*%
%ADD20RoundRect,0.225000X-0.225000X-0.250000X0.225000X-0.250000X0.225000X0.250000X-0.225000X0.250000X0*%
%TD*%
%TA.AperFunction,SMDPad,CuDef*%
%ADD21RoundRect,0.225000X0.225000X0.250000X-0.225000X0.250000X-0.225000X-0.250000X0.225000X-0.250000X0*%
%TD*%
%TA.AperFunction,ViaPad*%
%ADD22C,0.600000*%
%TD*%
%TA.AperFunction,Conductor*%
%ADD23C,0.200000*%
%TD*%
G04 APERTURE END LIST*
D10*
%TO.P,U1,1,GAIN*%
%TO.N,Net-(C2-Pad1)*%
X119525000Y-83595000D03*
%TO.P,U1,2,-*%
%TO.N,GND*%
X119525000Y-84865000D03*
%TO.P,U1,3,+*%
%TO.N,Net-(U1-+)*%
X119525000Y-86135000D03*
%TO.P,U1,4,GND*%
%TO.N,GND*%
X119525000Y-87405000D03*
%TO.P,U1,5*%
%TO.N,/Vout*%
X124475000Y-87405000D03*
%TO.P,U1,6,V+*%
%TO.N,+9V*%
X124475000Y-86135000D03*
%TO.P,U1,7,BYPASS*%
%TO.N,unconnected-(U1-BYPASS-Pad7)*%
X124475000Y-84865000D03*
%TO.P,U1,8,GAIN*%
%TO.N,Net-(C2-Pad2)*%
X124475000Y-83595000D03*
%TD*%
D11*
%TO.P,RV1,1,1*%
%TO.N,Net-(J1-Pin_2)*%
X112700000Y-85000000D03*
D12*
%TO.P,RV1,2,2*%
%TO.N,Net-(U1-+)*%
X115950000Y-86000000D03*
D11*
%TO.P,RV1,3,3*%
%TO.N,GND*%
X112700000Y-87000000D03*
%TD*%
D13*
%TO.P,R2,1*%
%TO.N,Net-(C4-Pad1)*%
X129500000Y-89325000D03*
%TO.P,R2,2*%
%TO.N,GND*%
X129500000Y-87675000D03*
%TD*%
D14*
%TO.P,R1,1*%
%TO.N,+9V*%
X112112500Y-81500000D03*
%TO.P,R1,2*%
%TO.N,Net-(D1-A)*%
X113762500Y-81500000D03*
%TD*%
D15*
%TO.P,J2,1,Pin_1*%
%TO.N,Net-(J2-Pin_1)*%
X144500000Y-84500000D03*
D16*
%TO.P,J2,2,Pin_2*%
%TO.N,GND*%
X144500000Y-85500000D03*
%TD*%
D15*
%TO.P,J1,1,Pin_1*%
%TO.N,+9V*%
X110000000Y-83500000D03*
D16*
%TO.P,J1,2,Pin_2*%
%TO.N,Net-(J1-Pin_2)*%
X110000000Y-84500000D03*
%TO.P,J1,3,Pin_3*%
%TO.N,GND*%
X110000000Y-85500000D03*
%TO.P,J1,4,Pin_4*%
X110000000Y-86500000D03*
%TD*%
D17*
%TO.P,D1,1,K*%
%TO.N,GND*%
X117397500Y-81500000D03*
%TO.P,D1,2,A*%
%TO.N,Net-(D1-A)*%
X115522500Y-81500000D03*
%TD*%
D18*
%TO.P,C4,1*%
%TO.N,Net-(C4-Pad1)*%
X127500000Y-89275000D03*
%TO.P,C4,2*%
%TO.N,/Vout*%
X127500000Y-87725000D03*
%TD*%
D19*
%TO.P,C3,1*%
%TO.N,/Vout*%
X132000000Y-84000000D03*
%TO.P,C3,2*%
%TO.N,Net-(J2-Pin_1)*%
X140000000Y-84000000D03*
%TD*%
D20*
%TO.P,C2,1*%
%TO.N,Net-(C2-Pad1)*%
X121225000Y-81500000D03*
%TO.P,C2,2*%
%TO.N,Net-(C2-Pad2)*%
X122775000Y-81500000D03*
%TD*%
D21*
%TO.P,C1,1*%
%TO.N,+9V*%
X122775000Y-89000000D03*
%TO.P,C1,2*%
%TO.N,GND*%
X121225000Y-89000000D03*
%TD*%
D22*
%TO.N,GND*%
X113500000Y-88500000D03*
X121500000Y-86500000D03*
X131000000Y-88000000D03*
X143500000Y-85500000D03*
%TD*%
D23*
%TO.N,GND*%
X121500000Y-86500000D02*
X121500000Y-87000000D01*
X130675000Y-87675000D02*
X131000000Y-88000000D01*
X129500000Y-87675000D02*
X130675000Y-87675000D01*
X113500000Y-88500000D02*
X119000000Y-88500000D01*
X112700000Y-87700000D02*
X113500000Y-88500000D01*
X112700000Y-87000000D02*
X112700000Y-87700000D01*
X119525000Y-87405000D02*
X120310000Y-88190000D01*
X120310000Y-88190000D02*
X121120000Y-89000000D01*
X119000000Y-88500000D02*
X119310000Y-88190000D01*
X119310000Y-88190000D02*
X120310000Y-88190000D01*
X118000000Y-85000000D02*
X118135000Y-84865000D01*
X117397500Y-84397500D02*
X118000000Y-85000000D01*
X118135000Y-84865000D02*
X119525000Y-84865000D01*
X117397500Y-81500000D02*
X117397500Y-84397500D01*
%TO.N,Net-(D1-A)*%
X113762500Y-81500000D02*
X115522500Y-81500000D01*
%TO.N,GND*%
X121095000Y-87405000D02*
X119525000Y-87405000D01*
X121500000Y-85000000D02*
X121500000Y-86500000D01*
X121500000Y-87000000D02*
X121095000Y-87405000D01*
X121365000Y-84865000D02*
X121500000Y-85000000D01*
X119525000Y-84865000D02*
X121365000Y-84865000D01*
X121120000Y-89000000D02*
X121225000Y-89000000D01*
X112200000Y-86500000D02*
X112700000Y-87000000D01*
X110000000Y-86500000D02*
X112200000Y-86500000D01*
X144500000Y-85500000D02*
X143500000Y-85500000D01*
X110000000Y-85500000D02*
X110000000Y-86500000D01*
%TO.N,+9V*%
X112112500Y-82887500D02*
X112112500Y-81500000D01*
X110000000Y-83500000D02*
X111500000Y-83500000D01*
X111500000Y-83500000D02*
X112112500Y-82887500D01*
%TO.N,Net-(J1-Pin_2)*%
X112200000Y-84500000D02*
X110000000Y-84500000D01*
X112700000Y-85000000D02*
X112200000Y-84500000D01*
%TO.N,+9V*%
X127000000Y-83000000D02*
X124000000Y-80000000D01*
X127000000Y-85500000D02*
X127000000Y-83000000D01*
X113000000Y-80000000D02*
X112437500Y-80562500D01*
X112437500Y-80562500D02*
X112112500Y-80562500D01*
X126365000Y-86135000D02*
X127000000Y-85500000D01*
X124475000Y-86135000D02*
X126365000Y-86135000D01*
X124000000Y-80000000D02*
X113000000Y-80000000D01*
X112112500Y-81500000D02*
X112112500Y-80562500D01*
%TO.N,Net-(J2-Pin_1)*%
X144000000Y-84000000D02*
X144500000Y-84500000D01*
X140000000Y-84000000D02*
X144000000Y-84000000D01*
%TO.N,Net-(C4-Pad1)*%
X129450000Y-89275000D02*
X129500000Y-89325000D01*
X127500000Y-89275000D02*
X129450000Y-89275000D01*
%TO.N,/Vout*%
X129500000Y-84000000D02*
X132000000Y-84000000D01*
X127500000Y-86000000D02*
X129500000Y-84000000D01*
X127500000Y-87725000D02*
X127500000Y-86000000D01*
X127180000Y-87405000D02*
X127500000Y-87725000D01*
X124475000Y-87405000D02*
X127180000Y-87405000D01*
%TO.N,+9V*%
X122500000Y-88725000D02*
X122775000Y-89000000D01*
X122500000Y-86500000D02*
X122500000Y-88725000D01*
X122865000Y-86135000D02*
X122500000Y-86500000D01*
X124475000Y-86135000D02*
X122865000Y-86135000D01*
%TO.N,Net-(U1-+)*%
X119390000Y-86000000D02*
X119525000Y-86135000D01*
X115950000Y-86000000D02*
X119390000Y-86000000D01*
%TO.N,Net-(C2-Pad2)*%
X124475000Y-82525000D02*
X124475000Y-83595000D01*
X124500000Y-82000000D02*
X124500000Y-82500000D01*
X124000000Y-81500000D02*
X124500000Y-82000000D01*
X122775000Y-81500000D02*
X124000000Y-81500000D01*
X124500000Y-82500000D02*
X124475000Y-82525000D01*
%TO.N,Net-(C2-Pad1)*%
X119525000Y-82025000D02*
X119500000Y-82000000D01*
X119500000Y-82000000D02*
X120000000Y-81500000D01*
X119525000Y-83595000D02*
X119525000Y-82025000D01*
X120000000Y-81500000D02*
X121225000Y-81500000D01*
%TD*%
M02*
