%TF.GenerationSoftware,KiCad,Pcbnew,8.0.0*%
%TF.CreationDate,2024-02-24T23:10:17-05:00*%
%TF.ProjectId,Guitar_Amplifier,47756974-6172-45f4-916d-706c69666965,rev?*%
%TF.SameCoordinates,Original*%
%TF.FileFunction,Legend,Top*%
%TF.FilePolarity,Positive*%
%FSLAX46Y46*%
G04 Gerber Fmt 4.6, Leading zero omitted, Abs format (unit mm)*
G04 Created by KiCad (PCBNEW 8.0.0) date 2024-02-24 23:10:17*
%MOMM*%
%LPD*%
G01*
G04 APERTURE LIST*
%ADD10C,0.150000*%
%ADD11C,0.120000*%
G04 APERTURE END LIST*
D10*
X126238095Y-84454819D02*
X126238095Y-85264342D01*
X126238095Y-85264342D02*
X126285714Y-85359580D01*
X126285714Y-85359580D02*
X126333333Y-85407200D01*
X126333333Y-85407200D02*
X126428571Y-85454819D01*
X126428571Y-85454819D02*
X126619047Y-85454819D01*
X126619047Y-85454819D02*
X126714285Y-85407200D01*
X126714285Y-85407200D02*
X126761904Y-85359580D01*
X126761904Y-85359580D02*
X126809523Y-85264342D01*
X126809523Y-85264342D02*
X126809523Y-84454819D01*
X127809523Y-85454819D02*
X127238095Y-85454819D01*
X127523809Y-85454819D02*
X127523809Y-84454819D01*
X127523809Y-84454819D02*
X127428571Y-84597676D01*
X127428571Y-84597676D02*
X127333333Y-84692914D01*
X127333333Y-84692914D02*
X127238095Y-84740533D01*
X113904761Y-83954819D02*
X113571428Y-83478628D01*
X113333333Y-83954819D02*
X113333333Y-82954819D01*
X113333333Y-82954819D02*
X113714285Y-82954819D01*
X113714285Y-82954819D02*
X113809523Y-83002438D01*
X113809523Y-83002438D02*
X113857142Y-83050057D01*
X113857142Y-83050057D02*
X113904761Y-83145295D01*
X113904761Y-83145295D02*
X113904761Y-83288152D01*
X113904761Y-83288152D02*
X113857142Y-83383390D01*
X113857142Y-83383390D02*
X113809523Y-83431009D01*
X113809523Y-83431009D02*
X113714285Y-83478628D01*
X113714285Y-83478628D02*
X113333333Y-83478628D01*
X114190476Y-82954819D02*
X114523809Y-83954819D01*
X114523809Y-83954819D02*
X114857142Y-82954819D01*
X115714285Y-83954819D02*
X115142857Y-83954819D01*
X115428571Y-83954819D02*
X115428571Y-82954819D01*
X115428571Y-82954819D02*
X115333333Y-83097676D01*
X115333333Y-83097676D02*
X115238095Y-83192914D01*
X115238095Y-83192914D02*
X115142857Y-83240533D01*
X129954819Y-91166666D02*
X129478628Y-91499999D01*
X129954819Y-91738094D02*
X128954819Y-91738094D01*
X128954819Y-91738094D02*
X128954819Y-91357142D01*
X128954819Y-91357142D02*
X129002438Y-91261904D01*
X129002438Y-91261904D02*
X129050057Y-91214285D01*
X129050057Y-91214285D02*
X129145295Y-91166666D01*
X129145295Y-91166666D02*
X129288152Y-91166666D01*
X129288152Y-91166666D02*
X129383390Y-91214285D01*
X129383390Y-91214285D02*
X129431009Y-91261904D01*
X129431009Y-91261904D02*
X129478628Y-91357142D01*
X129478628Y-91357142D02*
X129478628Y-91738094D01*
X129050057Y-90785713D02*
X129002438Y-90738094D01*
X129002438Y-90738094D02*
X128954819Y-90642856D01*
X128954819Y-90642856D02*
X128954819Y-90404761D01*
X128954819Y-90404761D02*
X129002438Y-90309523D01*
X129002438Y-90309523D02*
X129050057Y-90261904D01*
X129050057Y-90261904D02*
X129145295Y-90214285D01*
X129145295Y-90214285D02*
X129240533Y-90214285D01*
X129240533Y-90214285D02*
X129383390Y-90261904D01*
X129383390Y-90261904D02*
X129954819Y-90833332D01*
X129954819Y-90833332D02*
X129954819Y-90214285D01*
X112833333Y-80454819D02*
X112500000Y-79978628D01*
X112261905Y-80454819D02*
X112261905Y-79454819D01*
X112261905Y-79454819D02*
X112642857Y-79454819D01*
X112642857Y-79454819D02*
X112738095Y-79502438D01*
X112738095Y-79502438D02*
X112785714Y-79550057D01*
X112785714Y-79550057D02*
X112833333Y-79645295D01*
X112833333Y-79645295D02*
X112833333Y-79788152D01*
X112833333Y-79788152D02*
X112785714Y-79883390D01*
X112785714Y-79883390D02*
X112738095Y-79931009D01*
X112738095Y-79931009D02*
X112642857Y-79978628D01*
X112642857Y-79978628D02*
X112261905Y-79978628D01*
X113785714Y-80454819D02*
X113214286Y-80454819D01*
X113500000Y-80454819D02*
X113500000Y-79454819D01*
X113500000Y-79454819D02*
X113404762Y-79597676D01*
X113404762Y-79597676D02*
X113309524Y-79692914D01*
X113309524Y-79692914D02*
X113214286Y-79740533D01*
X144166666Y-82394819D02*
X144166666Y-83109104D01*
X144166666Y-83109104D02*
X144119047Y-83251961D01*
X144119047Y-83251961D02*
X144023809Y-83347200D01*
X144023809Y-83347200D02*
X143880952Y-83394819D01*
X143880952Y-83394819D02*
X143785714Y-83394819D01*
X144595238Y-82490057D02*
X144642857Y-82442438D01*
X144642857Y-82442438D02*
X144738095Y-82394819D01*
X144738095Y-82394819D02*
X144976190Y-82394819D01*
X144976190Y-82394819D02*
X145071428Y-82442438D01*
X145071428Y-82442438D02*
X145119047Y-82490057D01*
X145119047Y-82490057D02*
X145166666Y-82585295D01*
X145166666Y-82585295D02*
X145166666Y-82680533D01*
X145166666Y-82680533D02*
X145119047Y-82823390D01*
X145119047Y-82823390D02*
X144547619Y-83394819D01*
X144547619Y-83394819D02*
X145166666Y-83394819D01*
X109666666Y-81394819D02*
X109666666Y-82109104D01*
X109666666Y-82109104D02*
X109619047Y-82251961D01*
X109619047Y-82251961D02*
X109523809Y-82347200D01*
X109523809Y-82347200D02*
X109380952Y-82394819D01*
X109380952Y-82394819D02*
X109285714Y-82394819D01*
X110666666Y-82394819D02*
X110095238Y-82394819D01*
X110380952Y-82394819D02*
X110380952Y-81394819D01*
X110380952Y-81394819D02*
X110285714Y-81537676D01*
X110285714Y-81537676D02*
X110190476Y-81632914D01*
X110190476Y-81632914D02*
X110095238Y-81680533D01*
X115721905Y-79954819D02*
X115721905Y-78954819D01*
X115721905Y-78954819D02*
X115960000Y-78954819D01*
X115960000Y-78954819D02*
X116102857Y-79002438D01*
X116102857Y-79002438D02*
X116198095Y-79097676D01*
X116198095Y-79097676D02*
X116245714Y-79192914D01*
X116245714Y-79192914D02*
X116293333Y-79383390D01*
X116293333Y-79383390D02*
X116293333Y-79526247D01*
X116293333Y-79526247D02*
X116245714Y-79716723D01*
X116245714Y-79716723D02*
X116198095Y-79811961D01*
X116198095Y-79811961D02*
X116102857Y-79907200D01*
X116102857Y-79907200D02*
X115960000Y-79954819D01*
X115960000Y-79954819D02*
X115721905Y-79954819D01*
X117245714Y-79954819D02*
X116674286Y-79954819D01*
X116960000Y-79954819D02*
X116960000Y-78954819D01*
X116960000Y-78954819D02*
X116864762Y-79097676D01*
X116864762Y-79097676D02*
X116769524Y-79192914D01*
X116769524Y-79192914D02*
X116674286Y-79240533D01*
X127859580Y-91166666D02*
X127907200Y-91214285D01*
X127907200Y-91214285D02*
X127954819Y-91357142D01*
X127954819Y-91357142D02*
X127954819Y-91452380D01*
X127954819Y-91452380D02*
X127907200Y-91595237D01*
X127907200Y-91595237D02*
X127811961Y-91690475D01*
X127811961Y-91690475D02*
X127716723Y-91738094D01*
X127716723Y-91738094D02*
X127526247Y-91785713D01*
X127526247Y-91785713D02*
X127383390Y-91785713D01*
X127383390Y-91785713D02*
X127192914Y-91738094D01*
X127192914Y-91738094D02*
X127097676Y-91690475D01*
X127097676Y-91690475D02*
X127002438Y-91595237D01*
X127002438Y-91595237D02*
X126954819Y-91452380D01*
X126954819Y-91452380D02*
X126954819Y-91357142D01*
X126954819Y-91357142D02*
X127002438Y-91214285D01*
X127002438Y-91214285D02*
X127050057Y-91166666D01*
X127288152Y-90309523D02*
X127954819Y-90309523D01*
X126907200Y-90547618D02*
X127621485Y-90785713D01*
X127621485Y-90785713D02*
X127621485Y-90166666D01*
X135833333Y-78159580D02*
X135785714Y-78207200D01*
X135785714Y-78207200D02*
X135642857Y-78254819D01*
X135642857Y-78254819D02*
X135547619Y-78254819D01*
X135547619Y-78254819D02*
X135404762Y-78207200D01*
X135404762Y-78207200D02*
X135309524Y-78111961D01*
X135309524Y-78111961D02*
X135261905Y-78016723D01*
X135261905Y-78016723D02*
X135214286Y-77826247D01*
X135214286Y-77826247D02*
X135214286Y-77683390D01*
X135214286Y-77683390D02*
X135261905Y-77492914D01*
X135261905Y-77492914D02*
X135309524Y-77397676D01*
X135309524Y-77397676D02*
X135404762Y-77302438D01*
X135404762Y-77302438D02*
X135547619Y-77254819D01*
X135547619Y-77254819D02*
X135642857Y-77254819D01*
X135642857Y-77254819D02*
X135785714Y-77302438D01*
X135785714Y-77302438D02*
X135833333Y-77350057D01*
X136166667Y-77254819D02*
X136785714Y-77254819D01*
X136785714Y-77254819D02*
X136452381Y-77635771D01*
X136452381Y-77635771D02*
X136595238Y-77635771D01*
X136595238Y-77635771D02*
X136690476Y-77683390D01*
X136690476Y-77683390D02*
X136738095Y-77731009D01*
X136738095Y-77731009D02*
X136785714Y-77826247D01*
X136785714Y-77826247D02*
X136785714Y-78064342D01*
X136785714Y-78064342D02*
X136738095Y-78159580D01*
X136738095Y-78159580D02*
X136690476Y-78207200D01*
X136690476Y-78207200D02*
X136595238Y-78254819D01*
X136595238Y-78254819D02*
X136309524Y-78254819D01*
X136309524Y-78254819D02*
X136214286Y-78207200D01*
X136214286Y-78207200D02*
X136166667Y-78159580D01*
X121833333Y-80429580D02*
X121785714Y-80477200D01*
X121785714Y-80477200D02*
X121642857Y-80524819D01*
X121642857Y-80524819D02*
X121547619Y-80524819D01*
X121547619Y-80524819D02*
X121404762Y-80477200D01*
X121404762Y-80477200D02*
X121309524Y-80381961D01*
X121309524Y-80381961D02*
X121261905Y-80286723D01*
X121261905Y-80286723D02*
X121214286Y-80096247D01*
X121214286Y-80096247D02*
X121214286Y-79953390D01*
X121214286Y-79953390D02*
X121261905Y-79762914D01*
X121261905Y-79762914D02*
X121309524Y-79667676D01*
X121309524Y-79667676D02*
X121404762Y-79572438D01*
X121404762Y-79572438D02*
X121547619Y-79524819D01*
X121547619Y-79524819D02*
X121642857Y-79524819D01*
X121642857Y-79524819D02*
X121785714Y-79572438D01*
X121785714Y-79572438D02*
X121833333Y-79620057D01*
X122214286Y-79620057D02*
X122261905Y-79572438D01*
X122261905Y-79572438D02*
X122357143Y-79524819D01*
X122357143Y-79524819D02*
X122595238Y-79524819D01*
X122595238Y-79524819D02*
X122690476Y-79572438D01*
X122690476Y-79572438D02*
X122738095Y-79620057D01*
X122738095Y-79620057D02*
X122785714Y-79715295D01*
X122785714Y-79715295D02*
X122785714Y-79810533D01*
X122785714Y-79810533D02*
X122738095Y-79953390D01*
X122738095Y-79953390D02*
X122166667Y-80524819D01*
X122166667Y-80524819D02*
X122785714Y-80524819D01*
X121833333Y-90789580D02*
X121785714Y-90837200D01*
X121785714Y-90837200D02*
X121642857Y-90884819D01*
X121642857Y-90884819D02*
X121547619Y-90884819D01*
X121547619Y-90884819D02*
X121404762Y-90837200D01*
X121404762Y-90837200D02*
X121309524Y-90741961D01*
X121309524Y-90741961D02*
X121261905Y-90646723D01*
X121261905Y-90646723D02*
X121214286Y-90456247D01*
X121214286Y-90456247D02*
X121214286Y-90313390D01*
X121214286Y-90313390D02*
X121261905Y-90122914D01*
X121261905Y-90122914D02*
X121309524Y-90027676D01*
X121309524Y-90027676D02*
X121404762Y-89932438D01*
X121404762Y-89932438D02*
X121547619Y-89884819D01*
X121547619Y-89884819D02*
X121642857Y-89884819D01*
X121642857Y-89884819D02*
X121785714Y-89932438D01*
X121785714Y-89932438D02*
X121833333Y-89980057D01*
X122785714Y-90884819D02*
X122214286Y-90884819D01*
X122500000Y-90884819D02*
X122500000Y-89884819D01*
X122500000Y-89884819D02*
X122404762Y-90027676D01*
X122404762Y-90027676D02*
X122309524Y-90122914D01*
X122309524Y-90122914D02*
X122214286Y-90170533D01*
D11*
%TO.C,U1*%
X122000000Y-82940000D02*
X120050000Y-82940000D01*
X122000000Y-82940000D02*
X123950000Y-82940000D01*
X122000000Y-88060000D02*
X120050000Y-88060000D01*
X122000000Y-88060000D02*
X123950000Y-88060000D01*
X119300000Y-83035000D02*
X119060000Y-82705000D01*
X119540000Y-82705000D01*
X119300000Y-83035000D01*
G36*
X119300000Y-83035000D02*
G01*
X119060000Y-82705000D01*
X119540000Y-82705000D01*
X119300000Y-83035000D01*
G37*
%TO.C,RV1*%
X111900000Y-84200000D02*
X111900000Y-84900000D01*
X112400000Y-85800000D02*
X112400000Y-86200000D01*
X112600000Y-84200000D02*
X111900000Y-84200000D01*
X113500000Y-84400000D02*
X116400000Y-84400000D01*
X113500000Y-87600000D02*
X116400000Y-87600000D01*
X116400000Y-84400000D02*
X116400000Y-85000000D01*
X116400000Y-87600000D02*
X116400000Y-87000000D01*
%TO.C,R2*%
X128977500Y-88737258D02*
X128977500Y-88262742D01*
X130022500Y-88737258D02*
X130022500Y-88262742D01*
%TO.C,R1*%
X112700242Y-80977500D02*
X113174758Y-80977500D01*
X112700242Y-82022500D02*
X113174758Y-82022500D01*
%TO.C,J2*%
X143805000Y-83815000D02*
X144500000Y-83815000D01*
X143805000Y-84500000D02*
X143805000Y-83815000D01*
X143805000Y-85185000D02*
X143805000Y-86060000D01*
X143805000Y-85185000D02*
X143891724Y-85185000D01*
X143805000Y-86060000D02*
X144105507Y-86060000D01*
X144894493Y-86060000D02*
X145195000Y-86060000D01*
X145108276Y-85185000D02*
X145195000Y-85185000D01*
X145195000Y-85185000D02*
X145195000Y-86060000D01*
%TO.C,J1*%
X109305000Y-82815000D02*
X110000000Y-82815000D01*
X109305000Y-83500000D02*
X109305000Y-82815000D01*
X109305000Y-84185000D02*
X109305000Y-87060000D01*
X109305000Y-84185000D02*
X109391724Y-84185000D01*
X109305000Y-87060000D02*
X109605507Y-87060000D01*
X110394493Y-87060000D02*
X110695000Y-87060000D01*
X110608276Y-84185000D02*
X110695000Y-84185000D01*
X110695000Y-84185000D02*
X110695000Y-87060000D01*
%TO.C,D1*%
X118145000Y-82460000D02*
X118145000Y-80540000D01*
X118145000Y-80540000D02*
X115460000Y-80540000D01*
X115460000Y-82460000D02*
X118145000Y-82460000D01*
%TO.C,C4*%
X126990000Y-88640580D02*
X126990000Y-88359420D01*
X128010000Y-88640580D02*
X128010000Y-88359420D01*
%TO.C,C3*%
X129250000Y-81240000D02*
X130500000Y-81240000D01*
X129875000Y-80615000D02*
X129875000Y-81865000D01*
X130740000Y-79804437D02*
X130740000Y-82490000D01*
X130740000Y-79804437D02*
X131804437Y-78740000D01*
X130740000Y-88195563D02*
X130740000Y-85510000D01*
X130740000Y-88195563D02*
X131804437Y-89260000D01*
X131804437Y-78740000D02*
X141260000Y-78740000D01*
X131804437Y-89260000D02*
X141260000Y-89260000D01*
X141260000Y-78740000D02*
X141260000Y-82490000D01*
X141260000Y-89260000D02*
X141260000Y-85510000D01*
%TO.C,C2*%
X121859420Y-80990000D02*
X122140580Y-80990000D01*
X121859420Y-82010000D02*
X122140580Y-82010000D01*
%TO.C,C1*%
X122140580Y-89510000D02*
X121859420Y-89510000D01*
X122140580Y-88490000D02*
X121859420Y-88490000D01*
%TD*%
M02*
